<svg width="702" height="278" viewBox="0 0 702 278" fill="none" xmlns="http://www.w3.org/2000/svg">
<g filter="url(#filter0_d_41_79663)">
<path d="M10 101.13L39.8505 151.675L51.7912 140.222L19.2029 91.6689L10 101.13Z" fill="url(#paint0_linear_41_79663)"/>
<path d="M454.263 61.2904L453.019 68.014L467.199 63.282L465.458 55.0659L454.266 61.2904H454.263Z" fill="#0071B9"/>
<path d="M370.683 15.7279L324.666 68.5133L338.098 64.7797L381.879 10L370.686 15.7279H370.683Z" fill="url(#paint1_linear_41_79663)"/>
<path d="M617.194 87.9327L628.386 81.9579L625.153 110.342L617.194 87.9327Z" fill="#1D2C5E"/>
<path d="M546.799 106.109L556.997 108.351L569.683 102.126L558.49 97.8934L546.799 106.109Z" fill="#1D2C5E"/>
<path d="M200.542 76.23L202.036 108.847L216.216 103.369L211.987 70.0056L200.545 76.23H200.542Z" fill="url(#paint2_linear_41_79663)"/>
<path d="M557.742 66.2721L546.55 72.4965L546.799 106.109L558.241 100.382L561.724 83.9495L557.745 66.2721H557.742Z" fill="url(#paint3_linear_41_79663)"/>
<path d="M556.251 108.351L543.815 218.9L563.714 214.917L567.444 102.376L556.251 108.351Z" fill="#312370"/>
<path d="M580.38 224.129L580.878 239.069L618.937 251.268L630.379 245.293L592.819 216.163L555.01 212.926L543.817 218.9L580.382 224.129H580.38Z" fill="#21386E"/>
<path d="M439.091 197.736L448.294 192.757L454.512 203.714L463.219 198.982L464.96 213.422L520.429 223.383L531.375 217.158L455.009 170.597L400.781 179.809L390.333 190.017L439.089 197.736H439.091Z" fill="#21386E"/>
<path d="M421.428 61.7896L410.236 68.014L390.336 190.02L401.529 184.045L420.683 115.574L421.428 61.7923V61.7896Z" fill="url(#paint4_linear_41_79663)"/>
<path d="M332.874 78.2216L323.918 82.9537L324.663 85.9411L345.807 72.4965L336.604 62.5358L324.663 68.5106L332.872 78.2216H332.874Z" fill="#1D2C5E"/>
<path d="M357.002 222.387L266.708 177.568L277.901 168.853L368.195 216.16L357.002 222.384V222.387Z" fill="#21386E"/>
<path d="M275.166 55.5652L261.485 81.4587L275.911 77.2259L286.358 49.3381L275.166 55.5625V55.5652Z" fill="#1D2C5E"/>
<path d="M150.792 162.878L139.35 170.844C139.35 170.844 141.839 183.792 145.073 192.755C148.306 201.72 155.769 208.94 155.769 208.94C160.743 213.672 166.466 217.156 173.183 219.147C185.869 222.881 200.295 220.393 212.735 212.424C215.969 210.432 220.447 207.195 223.182 204.457C210.995 211.927 150.798 162.875 150.798 162.875L150.792 162.878Z" fill="url(#paint5_linear_41_79663)"/>
<path d="M212.73 106.359L223.177 222.637L266.459 216.412L277.901 210.438L224.421 99.3884L213.475 103.122L202.033 108.85L212.73 106.359Z" fill="#1D2C5E"/>
<path d="M51.0431 146.696L99.2994 256.003L145.07 241.313L156.263 233.843L61.2408 134.244L49.3001 141.464L39.8478 151.672L51.0404 146.693L51.0431 146.696Z" fill="url(#paint6_linear_41_79663)"/>
<path d="M528.391 198.236L529.136 203.714C533.115 203.215 537.095 202.718 540.827 201.473C545.056 199.978 554.012 195.994 557.244 193.007C555.75 193.506 534.856 198.982 528.388 198.236" fill="#1D2C5E"/>
<path d="M366.455 170.348L368.195 179.063C377.398 177.568 385.359 174.331 393.318 169.602C398.292 166.614 403.516 162.381 405.259 161.136C404.014 161.882 366.455 170.348 366.455 170.348Z" fill="#1D2C5E"/>
<path d="M389.092 127.024L388.593 127.523C388.843 127.523 389.092 127.273 389.092 127.024Z" fill="#7D7F68"/>
<path d="M404.017 113.579L412.475 104.367L409.49 107.355V107.105L407.002 109.843L398.544 118.808L406.503 126.028L407.996 117.063L411.976 120.55L404.017 113.579Z" fill="#7D7F68"/>
<path d="M404.017 113.579L411.976 120.55L414.96 101.627L412.472 104.365L404.014 113.577L404.017 113.579Z" fill="#7D7F68"/>
<path d="M369.442 102.376C364.218 100.384 357.005 100.881 353.026 105.363C352.031 106.359 350.291 108.85 349.792 110.095C353.522 107.108 360.488 106.362 364.717 108.104L369.445 102.376H369.442Z" fill="#7D7F68"/>
<path d="M134.124 120.799C133.625 117.812 130.641 115.321 129.15 114.575C126.661 113.33 121.937 113.08 118.703 113.829C119.201 115.82 119.947 118.311 120.196 119.307C121.441 119.557 123.68 119.806 124.924 120.303C126.417 121.049 128.903 122.544 129.402 125.781C130.147 129.764 129.901 133.748 128.158 136.738C132.885 132.255 135.122 127.276 134.127 120.802" fill="#7D7F68"/>
<path d="M414.96 98.143L399.539 113.083L414.215 126.28L414.96 98.1457V98.143Z" fill="#1E2D5F"/>
<path d="M111.86 245.578L108.376 237.611L62.6084 135.524L61.6136 133.533L59.6239 134.529L58.1303 135.275L49.9222 139.258C48.678 137.266 46.6883 133.78 45.4441 131.539L27.0356 100.414L22.3081 92.1977L30.2668 87.2187C37.7294 82.4867 46.1869 78.0069 55.6392 74.021C74.0477 66.3016 92.7029 62.0688 109.867 62.0688C115.59 62.0688 121.06 62.568 126.037 63.3142C134.494 64.31 142.453 67.0478 148.921 71.5302C158.622 77.0084 166.334 85.4741 170.563 95.4321C174.046 103.648 174.792 113.359 172.553 123.32L171.308 129.295L176.283 125.808C179.516 123.317 183 121.326 186.73 119.833C193.198 117.095 199.915 115.6 206.629 115.6C213.344 115.6 219.066 116.846 224.539 119.334L228.022 120.829L227.773 116.846L226.279 100.164L226.03 97.4264L223.541 98.1725L215.829 100.164L214.585 71.7798L271.299 53.6031L270.8 75.763L275.029 76.7588L287.466 53.1039L324.529 85.9706L326.023 87.4657L327.517 85.9706C332.491 81.2386 338.709 77.2554 345.426 74.5176L348.161 73.2722L346.172 70.7813L339.455 62.5653L381.999 13.5215L404.387 46.8848L370.308 65.3112L362.845 69.2944L371.552 69.544C387.722 69.7936 402.148 76.7642 411.85 88.7165L415.333 93.1989L417.572 95.9367L413.842 99.9199L411.354 102.658L402.896 111.869L401.403 113.611L403.143 115.106L411.102 122.327L414.086 125.064L414.832 121.081L417.816 102.158L418.562 97.1794L419.307 92.2004L423.785 64.0657H466.072L466.322 62.0741L467.067 57.3421H503.882L512.838 113.614L513.337 117.348L516.321 115.106C520.051 112.369 524.033 110.374 528.262 108.632C533.984 106.391 539.704 105.395 545.676 105.395C552.639 105.395 559.357 106.89 565.079 110.127C565.328 110.127 565.328 110.377 565.824 110.627L568.559 111.623L568.809 108.635L569.554 102.411L569.804 100.419L567.814 99.9199L560.351 98.1779L560.102 68.7978L617.065 81.2466L621.294 102.411H625.772L630.25 84.234L677.761 95.6871L629.006 242.341L594.431 231.384L594.181 217.94V215.948L592.192 215.698L557.616 210.719L559.606 193.042L560.105 188.809L556.375 190.801C554.634 191.796 552.891 192.543 551.151 193.042C545.429 195.283 539.709 196.279 533.987 196.279C532.247 196.279 530.753 196.279 529.013 196.029L526.028 195.78L526.527 198.767L529.015 214.203L478.52 205.238L475.785 182.332L475.039 174.862L471.556 181.337L465.834 192.54L455.137 172.871L451.903 166.896L450.909 173.62L448.67 188.809L404.393 181.838L407.876 160.924L408.621 156.192L404.393 158.683C397.179 162.916 388.722 166.402 379.02 168.643C375.537 169.39 372.056 170.138 368.324 170.385L366.334 170.635V212.464L279.271 169.39L276.037 167.895V208.481L236.984 214.209L235.243 196.531L234.745 191.799L231.261 195.036C226.038 200.015 220.316 204.001 214.097 206.739C207.629 209.477 200.912 210.972 194.447 210.972C187.982 210.972 181.512 209.477 175.792 206.988C165.345 202.009 157.633 192.795 154.399 181.095C152.905 175.617 152.409 169.892 153.155 163.914L153.9 157.69L149.422 162.172C146.188 165.159 142.705 168.147 138.975 170.887L137.731 171.883L138.229 173.378L151.414 223.673L153.653 232.638L144.947 235.375L120.32 243.342L111.862 245.583L111.86 245.578ZM122.805 110.377C121.561 110.377 120.317 110.377 118.826 110.627L117.086 110.876L114.597 111.376L115.343 113.866L115.842 115.361L122.805 138.517L123.551 140.758L124.546 143.995L127.034 141.754L128.774 140.259C135.738 134.035 137.977 127.81 136.486 119.841C135.492 115.109 132.008 112.871 129.769 111.875C128.276 110.879 125.541 110.38 122.805 110.38V110.377ZM312.35 111.123L307.872 115.356L296.181 126.56L293.692 129.05L296.926 130.296L309.363 135.028L313.093 136.523L312.347 132.54C311.353 127.311 311.103 122.082 311.602 117.103L312.347 111.129L312.35 111.123ZM363.095 98.1752C358.367 98.1752 353.642 100.167 350.409 103.903C345.434 109.381 344.44 117.597 347.92 124.071L348.915 125.813L350.409 128.551L352.648 126.06L354.141 124.565L371.306 105.143L372.55 103.648L374.789 101.157L371.804 99.9118L369.815 99.1656C367.326 98.6664 365.337 98.1698 363.097 98.1698L363.095 98.1752Z" fill="#FFCB05"/>
<path d="M345.064 136.238C345.81 136.985 345.064 136.488 345.81 136.985L351.033 133.251C350.288 132.752 349.54 132.006 348.794 131.509C341.332 124.538 343.321 109.099 348.049 100.634C335.113 111.091 335.861 127.027 345.064 136.238Z" fill="#C7A008"/>
<path d="M407.996 144.951C399.29 152.171 389.588 156.654 376.655 159.891C373.92 160.637 370.933 161.136 368.447 161.136C347.802 163.128 330.638 153.666 324.17 138.477C323.425 136.735 322.676 134.743 322.18 132.749C319.196 119.801 321.682 108.348 328.149 99.1361C328.895 98.1403 329.394 97.3942 330.139 96.6453C329.89 96.8949 329.394 97.1445 329.144 97.3915C326.656 99.6327 324.417 101.874 322.676 104.612C316.209 113.577 313.72 125.277 316.707 138.225C317.206 140.216 317.702 142.208 318.697 143.952C325.165 159.389 342.576 168.85 362.974 166.859C365.709 166.609 368.447 166.112 371.432 165.364C384.367 162.126 394.315 157.644 402.773 150.424C404.763 148.682 407.002 146.69 408.991 144.696L408.742 144.446C408.243 144.696 407.996 144.696 407.996 144.946" fill="#C7A008"/>
<path d="M262.976 105.86L285.859 73.4923L284.865 72.7461L262.726 103.871L262.976 105.862V105.86Z" fill="#C7A008"/>
<path d="M414.96 101.627L411.976 120.55L407.997 117.063L406.503 126.028L398.544 118.808L407.002 109.843L409.49 107.105V107.355L412.475 104.367L414.963 101.63L414.96 101.627Z" fill="#C7A008"/>
<path d="M386.603 48.345L394.562 44.8584L379.886 25.9355L375.159 32.9061L386.601 48.3423L386.603 48.345Z" fill="#C7A008"/>
<path d="M163.725 95.1529C126.412 49.8374 59.5005 74.2385 35.6191 95.4026L36.6139 97.1445C42.0869 93.9075 48.0559 91.1697 54.0276 88.4293C77.9064 78.2217 100.793 75.2316 118.952 78.4686C125.42 79.2148 132.137 81.2064 138.106 85.1923C146.314 89.9243 152.533 96.3957 156.265 104.861C162.733 119.801 157.011 139.72 141.839 156.152C160.993 138.474 174.175 121.543 163.728 95.1502L163.725 95.1529Z" fill="#C7A008"/>
<path d="M239.596 147.938C239.346 147.192 239.346 146.196 239.097 145.447C237.107 137.978 232.629 132.003 226.66 128.017C217.208 121.543 203.776 120.298 190.591 125.776C183.627 128.763 177.656 133.495 172.681 138.973C176.411 135.736 180.64 133.246 185.118 131.254C198.303 125.526 211.735 127.021 221.187 133.495C227.156 137.478 231.634 143.456 233.624 150.926C233.873 151.672 234.123 152.668 234.123 153.417C234.621 156.404 234.868 159.144 234.868 162.132C234.619 170.847 231.385 179.562 226.161 187.029C225.416 188.275 224.421 189.271 223.426 190.516C226.411 187.778 229.148 185.038 231.385 181.801C236.858 174.331 239.842 165.616 240.341 156.903C240.341 153.916 240.092 150.928 239.596 147.938Z" fill="#C7A008"/>
<path d="M203.028 136.985C203.028 136.985 208.501 131.506 208.251 131.506C201.534 131.257 198.55 137.731 198.3 138.23C199.794 137.484 201.285 137.234 203.028 136.985Z" fill="#C7A008"/>
<path d="M215.714 144.704C215.963 145.7 216.213 146.446 216.213 147.442C216.213 148.937 215.963 150.18 215.218 151.425C216.213 150.926 224.174 146.943 221.187 138.976C221.436 139.475 215.465 144.704 215.714 144.704Z" fill="#C7A008"/>
<path d="M184.869 149.433C184.869 146.196 190.591 137.98 192.331 135.24C183.375 140.968 179.396 148.685 179.396 154.662C179.396 165.119 188.599 173.585 199.545 173.585C204.768 173.585 214.221 170.847 220.439 160.886C217.205 163.128 208.997 168.107 204.519 168.107C193.573 168.107 184.869 159.891 184.869 149.433Z" fill="#C7A008"/>
<path d="M261.734 158.895L261.983 200.973L268.701 201.473L267.207 153.417L261.734 158.895Z" fill="#C7A008"/>
<path d="M223.426 78.4713V82.2049L255.266 72.7434L257.505 113.33L262.978 105.86L261.734 65.2736L223.426 78.4713Z" fill="#C7A008"/>
<path d="M319.193 92.9144L289.592 65.5259L285.862 73.4923L312.229 98.143L319.193 92.9144Z" fill="#C7A008"/>
<path d="M314.715 143.955L279.641 132.253L274.667 137.731L309.492 151.675C313.471 159.144 319.443 165.618 326.905 170.101C334.118 174.583 342.576 177.321 351.283 178.067V195.248L356.756 197.986L358.496 172.093L314.715 143.958V143.955Z" fill="#C7A008"/>
<path d="M370.933 139.226C379.64 137.234 384.364 132.752 388.843 127.773C385.609 130.511 369.689 133.997 366.953 134.743L361.73 140.471C363.969 140.471 367.948 139.972 370.933 139.226Z" fill="#C7A008"/>
<path d="M355.262 79.4671C339.342 81.4587 331.134 94.9033 329.89 96.3984C335.859 91.4194 343.075 87.6831 351.283 85.9411C370.933 81.2091 388.097 87.1866 398.794 100.382L405.511 94.9033C394.814 81.9552 374.915 74.735 355.265 79.4671" fill="#C7A008"/>
<path d="M408.495 144.454C410.485 142.959 413.719 141.217 415.708 139.226L394.565 120.303C392.825 122.295 391.58 125.532 389.591 127.027L408.495 144.457V144.454Z" fill="#C7A008"/>
<path d="M517.198 195.248C495.059 176.822 496.304 137.731 507.247 125.282L497.545 63.7812L476.152 66.519L475.157 71.9972H491.327L500.034 127.77C489.088 140.219 483.864 156.901 487.348 172.339C490.083 184.292 497.545 193.753 507.992 199.231C508.987 199.731 510.231 200.227 511.226 200.726L511.476 201.473L517.943 202.468C517.694 202.718 518.442 195.745 517.198 195.248Z" fill="#C7A008"/>
<path d="M431.875 72.7461L430.88 78.2243H455.258L462.471 117.815L467.944 112.337L462.222 70.5076L431.875 72.7488V72.7461Z" fill="#C7A008"/>
<path d="M473.666 149.433L465.708 169.851L467.697 175.33L478.89 144.205L473.666 149.433Z" fill="#C7A008"/>
<path d="M450.284 136.735L444.811 142.213L438.842 179.063L444.564 181.055L450.286 136.735H450.284Z" fill="#C7A008"/>
<path d="M559.981 124.783C563.215 127.024 565.95 130.011 567.94 133.498C569.68 136.236 570.675 138.976 571.67 142.463C574.405 153.666 571.171 165.619 564.207 175.08C563.462 176.076 562.714 177.072 561.968 177.818C564.703 175.327 599.528 149.683 565.698 116.067C528.385 103.868 514.208 128.02 512.964 129.762C516.943 126.525 521.421 123.537 526.396 121.795C538.832 116.816 551.269 118.558 559.976 124.783" fill="#C7A008"/>
<path d="M541.326 127.273C541.326 127.523 546.799 121.795 546.799 121.795C540.082 122.045 536.848 125.282 537.347 126.774C536.848 127.273 536.601 128.02 536.352 128.516C537.596 127.77 540.331 127.271 541.326 127.271" fill="#C7A008"/>
<path d="M553.763 135.739C554.012 136.735 554.012 137.481 554.012 138.477C554.012 139.722 553.514 140.968 553.017 141.964C554.012 141.464 561.974 138.976 558.986 130.011C559.236 130.511 553.514 135.739 553.763 135.739Z" fill="#C7A008"/>
<path d="M536.103 163.874C543.565 164.123 552.023 159.641 557.992 151.425C542.817 154.662 526.65 129.015 528.141 126.527C522.419 130.76 517.195 138.727 516.949 144.454C516.45 154.912 525.157 163.377 536.103 163.876" fill="#C7A008"/>
<path d="M619.929 230.353L623.412 232.595L667.193 101.128L634.358 93.6579L634.109 101.377L660.476 107.105L619.929 230.353Z" fill="#C7A008"/>
<path d="M567.943 79.4671L568.192 86.9369L603.017 93.9075L616.448 157.649L621.921 152.171L608.986 87.6831L567.943 79.4671Z" fill="#C7A008"/>
<path d="M594.806 152.171L585.104 206.452L590.577 208.194L600.279 146.693L594.806 152.171Z" fill="#C7A008"/>
<path d="M142.831 226.37L126.661 167.111L120.692 171.344L135.867 227.865L142.831 226.37Z" fill="#C7A008"/>
<path d="M138.602 137.481C134.872 141.464 126.415 149.184 121.687 152.171L118.703 142.959L112.484 122.541L108.505 108.847L104.526 113.826L108.505 127.52L114.723 147.689L117.708 156.901C124.425 153.167 133.877 145.198 138.602 137.478" fill="#C7A008"/>
<path d="M377.521 101.662C368.814 93.6954 355.383 94.192 347.424 102.907C339.465 111.623 339.961 125.067 348.668 133.034C349.414 133.78 350.162 134.279 350.907 134.776L379.015 102.905C378.516 102.655 378.02 102.158 377.521 101.659V101.662ZM351.154 124.071C348.419 119.092 348.915 112.618 353.144 108.136C357.123 103.903 363.095 102.658 368.318 104.649L351.154 124.071Z" fill="#3567B0"/>
<path d="M558.987 130.261C559.236 131.257 559.236 132.252 559.236 133.248C558.987 139.223 553.514 143.706 546.799 143.456C540.082 143.206 534.858 138.227 535.108 132.252C535.357 126.774 540.331 122.292 546.3 122.045C545.056 121.795 543.812 121.546 542.57 121.546C531.378 121.046 522.422 129.015 521.925 138.727C521.427 149.184 529.884 157.899 540.83 158.149C552.023 158.648 560.979 150.679 561.475 140.222C562.22 136.735 560.976 133.251 558.987 130.261Z" fill="#3466AF"/>
<path d="M221.683 142.213C221.683 148.188 216.21 152.92 209.742 152.92C203.275 152.92 197.802 148.188 197.802 142.213C197.802 136.735 202.529 132.006 208.748 131.506C207.503 131.257 206.259 131.257 205.018 131.257C193.825 131.257 185.118 139.473 185.118 149.433C185.118 159.891 193.825 168.107 204.768 168.107C215.711 168.107 224.668 159.891 224.668 149.433C224.668 145.7 223.423 142.463 221.434 139.473C221.434 140.219 221.683 141.215 221.683 142.21" fill="url(#paint7_linear_41_79663)"/>
<path d="M628.26 81.9928L623.286 102.411L618.808 79.7516L557.616 66.3069L558.115 100.419L567.318 102.411L566.573 108.635C566.573 108.635 566.323 108.635 566.323 108.385C554.881 102.411 540.701 101.662 527.519 106.89C523.041 108.632 518.812 110.874 515.082 113.614L505.879 55.3505H465.332L464.338 62.0741H421.554L416.58 91.9535L413.097 87.471C402.65 74.7726 387.724 67.802 371.059 67.3027L407.377 47.8806L381.999 10.0349L336.229 62.8203L344.188 72.5314C336.974 75.5188 330.756 79.5019 325.532 84.4836L286.23 49.6253L272.548 75.7684L273.047 50.3715L211.606 70.0405L213.346 102.907L223.793 100.169L225.287 116.851C213.346 111.373 198.92 111.623 185.735 117.35C181.756 119.092 178.023 121.084 174.789 123.575C177.028 113.367 176.529 103.406 172.55 94.4443C168.072 83.9871 159.864 75.0222 150.162 69.5466C143.198 64.8146 134.987 62.0768 126.283 61.081C105.14 57.3474 79.5179 61.081 54.395 71.7879C45.192 75.7711 36.4852 80.2535 28.7732 85.2325L19.0715 91.4569L25.0406 101.418L43.4491 132.789L49.1714 142.251L59.1224 137.272L60.616 136.526L106.387 238.61L110.865 248.321L121.062 245.084L145.689 237.117L156.635 233.631L153.9 222.674L140.715 172.38C144.445 169.642 147.928 166.652 151.162 163.415C150.417 169.39 150.913 175.614 152.407 181.342C155.89 193.541 163.848 203.252 175.044 208.481C186.984 214.209 201.66 214.209 215.092 208.481C221.809 205.493 228.028 201.51 233.002 196.282L234.742 216.45L278.024 209.976V171.134L368.318 215.953V172.879C372.048 172.629 375.532 171.883 379.264 171.137C389.215 168.646 397.673 165.409 405.382 160.929L401.652 184.085L450.407 191.805L453.142 174.127L465.828 197.782L473.54 182.842L476.276 207.493L531.498 217.204L528.514 198.531C535.977 199.277 543.935 198.281 551.647 195.543C553.388 194.797 555.377 194.048 556.871 193.053L554.632 212.971L591.446 218.2L591.695 233.389L630.003 245.341L680.003 94.7047L628.263 82.0062L628.26 81.9928ZM412.349 104.402L414.837 101.665L411.853 120.587L403.894 113.367L412.351 104.402H412.349ZM380.012 26.7192L393.444 44.8959L355.136 63.8188L352.401 59.8356C352.401 60.0852 380.012 26.7192 380.012 26.7192ZM126.535 167.146L141.71 225.906L117.083 233.872L66.3384 120.338C63.6032 121.833 58.3797 124.321 53.9016 126.562L35.493 95.4374C42.7063 90.7054 50.9144 86.7222 59.3718 82.9886C83.2506 72.781 106.137 69.7909 124.296 73.0279C130.764 73.7741 137.481 75.7657 143.45 79.7516C151.658 84.4836 157.877 90.955 161.609 99.4206C170.566 119.839 155.887 149.219 126.535 167.146ZM240.212 156.688C239.963 165.404 236.729 174.119 231.256 181.586C226.033 188.806 219.069 194.534 210.611 198.268C189.218 207.48 167.828 198.268 162.105 177.85C156.633 158.181 169.568 134.776 190.213 125.811C203.398 120.083 216.83 121.578 226.282 128.052C232.251 132.035 236.729 138.013 238.719 145.482C238.968 146.229 239.217 147.224 239.217 147.973C240.212 150.961 240.212 153.948 240.212 156.688ZM356.874 198.27L267.076 153.451L267.325 200.509L244.192 203.746L242.451 184.324C249.665 172.125 252.153 157.432 248.42 144.237C246.431 137.017 242.698 130.543 237.474 125.564L234.241 85.9733L223.793 88.7111L223.295 78.7504L260.608 67.547L262.847 105.892L290.209 67.3L317.322 92.9466L279.762 132.537L315.085 146.481C319.065 153.951 325.036 160.175 332.499 164.907C339.712 169.39 348.17 172.127 356.876 172.874V198.27H356.874ZM310.358 133.036L297.921 128.304L309.612 117.101C308.867 122.329 309.113 127.558 310.358 133.036ZM407.868 144.989C399.161 152.209 389.459 156.691 376.526 159.928C373.791 160.674 370.804 161.174 368.318 161.174C347.673 163.165 330.509 153.704 324.041 138.514C323.296 136.772 322.548 134.781 322.052 132.787C319.067 119.839 321.553 108.385 328.021 99.1737C329.761 96.4359 332 94.1947 334.489 91.9535C340.458 86.4752 348.17 82.7417 356.876 80.5004C376.526 75.7684 393.691 81.7459 404.387 94.6939L367.074 134.531C369.563 135.031 373.542 134.282 376.526 133.535C385.483 131.294 390.457 126.565 394.686 121.583L409.611 135.028L414.089 139.011C412.099 141.252 410.11 143.244 407.87 144.986L407.868 144.989ZM487.219 198.024L479.011 144.242L467.569 173.872L450.404 136.772H450.155L443.438 179.847L414.832 174.868L418.811 150.966C419.806 149.97 421.05 148.974 422.045 147.729L431.248 138.268L422.292 130.052L431.993 72.7837H460.849L468.062 112.374L476.27 66.5592H496.915L505.622 122.332C494.676 134.781 489.452 151.463 492.936 166.901C495.671 178.854 503.134 188.315 513.581 194.04C514.575 194.54 515.82 195.036 516.815 195.535L517.809 202.756L487.213 198.024H487.219ZM558.608 180.346C555.375 182.587 551.891 184.579 548.161 185.824C540.699 188.562 533.485 189.311 526.768 187.816C522.29 186.82 518.061 185.078 514.331 182.587C508.609 178.354 504.38 172.38 502.391 164.66C500.152 155.448 502.141 145.488 507.118 136.772C509.607 132.54 512.841 128.556 516.571 125.07C520.799 121.336 525.773 118.099 530.997 116.105C543.683 111.373 556.12 113.118 564.827 119.342C568.061 121.583 570.796 124.571 572.785 128.057C574.279 130.795 575.521 133.785 576.269 137.022C579.004 148.226 575.77 160.178 568.806 169.639C566.567 173.872 562.837 177.359 558.608 180.346ZM623.284 231.14L602.14 224.915L600.4 146.733L589.703 206.988L566.57 203.255L568.31 185.824C583.485 173.126 591.443 152.958 586.965 134.534C584.976 126.568 580.996 119.345 575.025 114.116L577.014 93.6981L568.307 91.4569L568.557 80.5004L608.356 88.4668L621.787 151.959L635.468 94.9409L665.815 101.665L623.278 231.137L623.284 231.14Z" fill="url(#paint8_linear_41_79663)"/>
<path d="M142.206 120.585C139.967 108.632 124.296 101.911 108.626 110.377L112.605 124.071L118.823 144.489L121.808 153.701C133.499 146.481 145.191 137.269 142.206 120.585ZM126.785 139.258C125.044 133.78 121.312 121.827 121.312 121.827C121.312 121.827 120.566 119.337 119.572 116.349C122.805 115.85 126.039 116.1 128.528 117.345C130.021 118.091 132.507 119.586 133.006 122.823C134.499 129.297 132.26 134.276 126.787 139.255L126.785 139.258Z" fill="#3C5AA6"/>
</g>
<defs>
<filter id="filter0_d_41_79663" x="0" y="0" width="702.003" height="278.003" filterUnits="userSpaceOnUse" color-interpolation-filters="sRGB">
<feFlood flood-opacity="0" result="BackgroundImageFix"/>
<feColorMatrix in="SourceAlpha" type="matrix" values="0 0 0 0 0 0 0 0 0 0 0 0 0 0 0 0 0 0 127 0" result="hardAlpha"/>
<feOffset dx="6" dy="6"/>
<feGaussianBlur stdDeviation="8"/>
<feComposite in2="hardAlpha" operator="out"/>
<feColorMatrix type="matrix" values="0 0 0 0 0 0 0 0 0 0 0 0 0 0 0 0 0 0 0.25 0"/>
<feBlend mode="normal" in2="BackgroundImageFix" result="effect1_dropShadow_41_79663"/>
<feBlend mode="normal" in="SourceGraphic" in2="effect1_dropShadow_41_79663" result="shape"/>
</filter>
<linearGradient id="paint0_linear_41_79663" x1="44.2396" y1="144.741" x2="19.268" y2="98.2567" gradientUnits="userSpaceOnUse">
<stop stop-color="#0070B6"/>
<stop offset="1" stop-color="#1D2C5E"/>
</linearGradient>
<linearGradient id="paint1_linear_41_79663" x1="348.276" y1="49.6652" x2="379.937" y2="15.7456" gradientUnits="userSpaceOnUse">
<stop stop-color="#0070B6"/>
<stop offset="1" stop-color="#1D2C5E"/>
</linearGradient>
<linearGradient id="paint2_linear_41_79663" x1="210.268" y1="106.282" x2="206.478" y2="74.5745" gradientUnits="userSpaceOnUse">
<stop stop-color="#0070B6"/>
<stop offset="1" stop-color="#1D2C5E"/>
</linearGradient>
<linearGradient id="paint3_linear_41_79663" x1="555.861" y1="100.179" x2="554.366" y2="71.535" gradientUnits="userSpaceOnUse">
<stop stop-color="#125D9E"/>
<stop offset="1" stop-color="#1D2C5E"/>
</linearGradient>
<linearGradient id="paint4_linear_41_79663" x1="450.302" y1="58.8813" x2="417.06" y2="111.733" gradientUnits="userSpaceOnUse">
<stop stop-color="#125D9E"/>
<stop offset="1" stop-color="#1D2C5E"/>
</linearGradient>
<linearGradient id="paint5_linear_41_79663" x1="156.592" y1="143.645" x2="179.272" y2="188.188" gradientUnits="userSpaceOnUse">
<stop stop-color="#105FA1"/>
<stop offset="1" stop-color="#1D2C5E"/>
</linearGradient>
<linearGradient id="paint6_linear_41_79663" x1="70.9902" y1="128.525" x2="97.2362" y2="189.308" gradientUnits="userSpaceOnUse">
<stop stop-color="#105FA1"/>
<stop offset="1" stop-color="#1D2C5E"/>
</linearGradient>
<linearGradient id="paint7_linear_41_79663" x1="186.178" y1="150.808" x2="225.819" y2="150.808" gradientUnits="userSpaceOnUse">
<stop stop-color="#3C5AA6"/>
<stop offset="0.93" stop-color="#2B73B9"/>
<stop offset="1" stop-color="#2A75BB"/>
</linearGradient>
<linearGradient id="paint8_linear_41_79663" x1="20.4526" y1="130.295" x2="681.629" y2="130.295" gradientUnits="userSpaceOnUse">
<stop stop-color="#3C5AA6"/>
<stop offset="0.93" stop-color="#2B73B9"/>
<stop offset="1" stop-color="#2A75BB"/>
</linearGradient>
</defs>
</svg>
